<?xml version="1.0" encoding="utf-8"?>
<!-- Generator: Adobe Illustrator 19.2.1, SVG Export Plug-In . SVG Version: 6.00 Build 0)  -->
<svg version="1.1" id="layer" xmlns="http://www.w3.org/2000/svg" xmlns:xlink="http://www.w3.org/1999/xlink" x="0px" y="0px"
	 viewBox="0 0 652 652" style="enable-background:new 0 0 652 652;" xml:space="preserve">
<style type="text/css">
	.st0{fill:#FF6F02;}
	.st1{fill:#2F4858;}
</style>
<path class="st0" d="M84.1,426.4c55.9,52.6,143.1,52.6,199.1,0l12,12.2c-62.6,59.2-160.6,59.2-223.1,0L84.1,426.4z"/>
<path class="st0" d="M38.4,325.3c1.1,35.4,15.1,69.1,39.4,94.8l-12.1,12c-27.5-29-43.3-67.2-44.4-107.1h17.1V325.3z"/>
<path class="st0" d="M77.9,221.1c-24.3,25.8-38.4,59.6-39.4,95.1H21.4c1-40,16.8-78.2,44.4-107.2L77.9,221.1z"/>
<path class="st0" d="M84.1,214.8l-12-12c62.6-59.3,160.6-59.3,223.2,0l-12.1,12C227.3,162.2,140.1,162.2,84.1,214.8z"/>
<path class="st0" d="M102.3,408.4c45.9,42.7,117,42.7,162.9,0l11.9,12c-52.6,49.3-134.4,49.3-186.9,0L102.3,408.4z"/>
<path class="st0" d="M64.1,325.1C65,353.7,76.2,381,95.6,402l-11.7,11.9c-22.7-24.1-35.8-55.7-36.9-88.8H64.1z"/>
<path class="st0" d="M95.6,239.2c-19.5,21-30.9,48.3-31.9,76.9H47c1.1-33.2,14.2-64.8,36.9-89L95.6,239.2z"/>
<path class="st0" d="M183.9,183.9c34.6,0.1,67.9,13.3,93.1,36.9l-12,12c-45.9-42.7-117-42.7-162.9,0l-12-12
	c9.6-9,20.5-16.6,32.2-22.5c12-6,24.8-10.3,38.1-12.5C168.2,184.5,176.1,183.9,183.9,183.9z"/>
<path class="st0" d="M120.3,390.2c35.9,32.7,90.7,32.7,126.6,0l12.1,12c-42.6,39.3-108.2,39.3-150.7,0L120.3,390.2z"/>
<path class="st0" d="M89.7,325.1c1.1,21.9,9.9,42.7,24.7,58.8L102,396c-17.9-19.4-28.3-44.5-29.4-70.9H89.7z"/>
<path class="st0" d="M114.1,257.2c-14.9,16.1-23.6,36.9-24.7,58.8H72.6c1-26.4,11.4-51.5,29.4-70.9L114.1,257.2z"/>
<path class="st0" d="M138.5,372.1c25.9,22.9,64.8,22.9,90.7,0l12.1,12.1c-32.5,29.3-82,29.3-114.5,0L138.5,372.1z"/>
<path class="st0" d="M115.4,325.1c0.9,15,6.7,29.3,16.5,40.7l-11.5,12.1c-13.1-14.6-20.9-33.2-21.9-52.8H115.4z"/>
<path class="st1" d="M277,320.8c-0.7,18.5,13.7,34.1,32.2,34.9c0.8,0,1.5,0,2.3,0c9.5,0.2,18.6-3.6,25.2-10.4l-3-4.7
	c-5.7,6.3-13.9,9.8-22.3,9.6c-15.5,0.3-28.3-12.1-28.6-27.6c0-0.6,0-1.2,0-1.8c-0.8-15.6,11.1-28.8,26.7-29.7c0.6,0,1.3,0,1.9,0
	c7.6,0,15,2.9,20.5,8.2l3.5-4.5c-6.3-6.3-15-9.8-23.9-9.5c-18.8-0.2-34.2,14.8-34.4,33.5C277,319.6,277,320.2,277,320.8z"/>
<path class="st1" d="M352.1,341.6c-0.9,6.8,3.9,13.1,10.8,13.9c0.8,0.1,1.6,0.1,2.4,0.1c0.8,0.1,1.6,0.1,2.4,0v-5.2h-2
	c-3.1,0-8.2-1.1-8.2-10.4v-78.4h-5.6L352.1,341.6z"/>
<path class="st1" d="M379.9,329.6c0,17,5.6,26.1,22,26.1c12.1-0.2,23-7.6,27.6-18.8l0,0c-0.4,1.8-0.6,3.6-0.6,5.4v11.8h5.6v-66.8
	H429v33c1,15.8-11,29.3-26.8,30.3c-0.2,0-0.4,0-0.6,0c-14.9,0-16.5-11-16.5-22.6v-40.8h-5.6L379.9,329.6z"/>
<path class="st1" d="M457.9,330.9c0,22.2,14.3,24.7,21.3,24.7c1.1,0.1,2.2,0.1,3.3,0v-5.2c-1,0.1-2,0.1-3.1,0
	c-5.4,0-15.9-2.3-15.9-19.9v-36.9H481v-5.1h-17.5v-19h-5.6v19h-8.8v5.1h8.8V330.9z"/>
<path class="st1" d="M490.4,320.8c-0.7,18.5,13.7,34.1,32.2,34.9c0.8,0,1.5,0,2.3,0c9.5,0.2,18.6-3.6,25.2-10.4l-3-4.7
	c-5.7,6.3-13.9,9.8-22.3,9.6c-15.5,0.3-28.3-12.1-28.6-27.6c0-0.6,0-1.2,0-1.8c-0.8-15.6,11.1-28.8,26.7-29.7c0.6,0,1.3,0,1.9,0
	c7.6,0,15,2.9,20.5,8.2l3.9-4.3c-6.3-6.3-15-9.8-23.9-9.5c-18.8-0.5-34.3,14.4-34.8,33.1C490.4,319.5,490.4,320.1,490.4,320.8z"/>
<path class="st1" d="M565.6,355.7h5.6v-32.5c-0.1-3.1,0.3-6.1,1.1-9.1c3.2-12.3,14.2-21,27-21.3c15,0,16.5,11,16.5,22.6v40.3h5.6
	v-42.5c0-15.8-4.7-26.1-22-26.1c-12.3,0-23.5,7.4-28.3,18.8l0,0c0.3-1.8,0.5-3.6,0.5-5.4v-38.5h-5.9V355.7z"/>
</svg>
