<?xml version="1.0" encoding="UTF-8"?>
<svg xmlns="http://www.w3.org/2000/svg" xmlns:xlink="http://www.w3.org/1999/xlink" width="720pt" height="216pt" viewBox="0 0 720 216" version="1.1">
<g id="surface1">
<path style=" stroke:none;fill-rule:evenodd;fill:rgb(96.861267%,55.685425%,11.764526%);fill-opacity:1;" d="M 720 85.867188 L 696.980469 83.109375 C 686.335938 81.742188 675.167969 81.570313 669.460938 81.589844 C 663.367188 81.609375 656.117188 82.816406 650.671875 85.128906 C 645.914063 87.148438 643.226563 91.023438 643.226563 91.023438 C 643.226563 91.023438 642.601563 82.980469 627.4375 83.03125 C 627.4375 83.03125 489.433594 83.492188 488.765625 83.492188 C 488.355469 83.453125 487.949219 83.425781 487.542969 83.390625 C 491.0625 74.386719 497.613281 57.65625 503.355469 43.210938 C 511.515625 22.664063 495.847656 20.085938 485.300781 20.15625 C 476.183594 20.21875 417.945313 20.261719 417.945313 20.261719 C 417.945313 20.261719 419.894531 20.894531 419.925781 21.046875 C 410.984375 19.835938 400.714844 19.097656 392.695313 19.105469 C 388.949219 19.113281 383.433594 19.367188 377.664063 20.316406 C 377.183594 20.316406 217.515625 20.445313 178.328125 20.480469 C 176.511719 20.484375 174.710938 20.695313 173.003906 21.484375 C 175.992188 11.175781 166.824219 0.390625 154.984375 0.113281 C 139.570313 -0.253906 75.25 0.390625 66.675781 0.390625 C 58.101563 0.390625 48.09375 7.453125 44.253906 15.621094 C 40.410156 23.792969 10.042969 92.945313 2.382813 109.324219 C -5.269531 125.699219 6.957031 136.375 18.671875 136.375 C 27.085938 136.375 131.210938 136.417969 131.210938 136.417969 C 131.210938 136.417969 113.128906 176.132813 106.445313 191.023438 C 99.761719 205.917969 114.695313 216 122.363281 216 C 130.035156 216 270.164063 215.832031 276.140625 215.832031 C 289.375 215.832031 295.105469 210.667969 299.195313 201.464844 C 302.085938 194.976563 311.628906 172.09375 320.699219 150.234375 C 354.964844 150.121094 397.179688 149.980469 397.539063 149.980469 C 404.816406 150.71875 412.3125 151.976563 421.078125 151.949219 C 425.761719 151.933594 437.910156 151.617188 442.695313 150.746094 C 445.460938 150.738281 607.96875 150.199219 607.96875 150.199219 C 607.96875 150.199219 619.273438 150.191406 640.910156 150.242188 C 647.59375 150.980469 657.691406 151.167969 666.421875 151.140625 C 679.175781 151.097656 693.839844 150.15625 701.789063 139.398438 C 704.300781 135.984375 706.921875 129.652344 707.097656 124.136719 L 707.105469 123.835938 C 707.105469 123.835938 707.066406 123.171875 707.058594 123.039063 C 707.527344 121.734375 720 85.867188 720 85.867188 "/>
<path style=" stroke:none;fill-rule:nonzero;fill:rgb(0%,0%,0%);fill-opacity:1;" d="M 638.085938 120.894531 C 637.992188 120.921875 637.90625 120.941406 637.816406 120.96875 C 637.289063 121.148438 636.800781 121.394531 636.34375 121.695313 C 636.257813 121.753906 636.179688 121.816406 636.097656 121.878906 C 635.648438 122.210938 635.238281 122.589844 634.898438 123.027344 C 634.859375 123.082031 634.828125 123.140625 634.789063 123.195313 C 634.449219 123.664063 634.171875 124.183594 633.980469 124.746094 C 633.96875 124.765625 633.957031 124.78125 633.953125 124.796875 L 631.703125 131.636719 C 629.773438 129.140625 628.015625 126.863281 626.953125 125.488281 C 631.78125 124.015625 635.640625 121.121094 638.210938 117.117188 C 638.46875 118.371094 638.898438 119.554688 639.492188 120.660156 C 639.003906 120.683594 638.535156 120.765625 638.085938 120.894531 Z M 386.695313 56.160156 C 389.539063 54.15625 395.007813 53.871094 400.480469 53.863281 C 404.351563 53.859375 408.113281 54.09375 413.054688 54.648438 L 414.890625 54.855469 L 414.378906 56.101563 L 402.984375 57.710938 C 398.523438 58.363281 394.304688 58.976563 390.15625 58.980469 C 387.460938 58.984375 385.859375 58.835938 384.90625 58.683594 C 385.328125 57.433594 386.1875 56.519531 386.695313 56.160156 Z M 711.378906 90.898438 L 703.820313 89.910156 C 692.8125 88.46875 681.082031 88.246094 675.066406 88.246094 L 675.019531 88.246094 C 669.054688 88.246094 662.277344 88.414063 657.15625 89.660156 C 650.441406 91.292969 644.96875 95.5625 641.601563 101.328125 C 641.28125 98.820313 640.390625 96.089844 638.152344 93.820313 C 634.320313 89.9375 628.609375 89.488281 624.636719 89.484375 L 579.671875 89.472656 L 579.671875 89.484375 C 565.632813 89.480469 525.183594 89.46875 525.171875 89.46875 C 525.15625 89.46875 525.140625 89.472656 525.128906 89.472656 C 525.089844 89.472656 525.050781 89.480469 525.011719 89.480469 L 463.761719 89.46875 L 463.488281 90.246094 L 460.800781 89.894531 C 449.800781 88.449219 438.078125 88.230469 432.066406 88.230469 C 426.089844 88.226563 419.285156 88.394531 414.148438 89.644531 C 403.167969 92.3125 395.457031 102.058594 394.960938 113.894531 C 394.949219 114.105469 394.945313 114.3125 394.945313 114.519531 C 394.945313 116.761719 395.503906 118.808594 396.488281 120.644531 C 396.003906 120.667969 395.539063 120.75 395.085938 120.878906 C 394.992188 120.90625 394.902344 120.925781 394.816406 120.957031 C 394.289063 121.132813 393.800781 121.375 393.347656 121.679688 C 393.261719 121.738281 393.179688 121.796875 393.097656 121.859375 C 392.777344 122.097656 392.492188 122.367188 392.226563 122.65625 L 393.59375 89.476563 L 347.21875 89.464844 L 345.378906 91.972656 L 322.664063 122.917969 L 329.285156 107.4375 L 329.367188 107.210938 C 330.664063 103.542969 329.972656 99.25 327.511719 95.722656 C 325.15625 92.347656 320.230469 88.230469 310.148438 87.796875 L 309.980469 87.792969 L 309.8125 87.792969 L 157.238281 87.808594 L 159.460938 82.609375 L 212.050781 82.535156 L 215.390625 74.191406 C 215.933594 75.191406 216.613281 76.132813 217.445313 76.996094 C 223.191406 82.972656 234.195313 83.765625 244.203125 83.753906 C 263.046875 83.726563 279.171875 82.480469 285.617188 67.4375 C 285.617188 67.4375 288.277344 61.199219 291.496094 53.652344 C 295.292969 53.648438 300.007813 53.640625 301.800781 53.640625 C 298.460938 62.027344 290.335938 82.4375 290.335938 82.4375 L 327.511719 82.382813 C 327.511719 82.382813 336.695313 59.335938 338.984375 53.585938 C 341.46875 53.582031 345.957031 53.578125 349.457031 53.570313 C 347.878906 57.988281 346.972656 62.0625 346.792969 64.777344 C 346.453125 69.910156 347.789063 74.089844 350.773438 77.1875 C 355.898438 82.515625 364.660156 83.59375 376.234375 83.578125 C 379.65625 83.574219 391.773438 83.394531 403.953125 81.285156 C 404.007813 81.277344 404.054688 81.265625 404.101563 81.253906 L 403.679688 82.28125 L 440.359375 82.230469 C 440.359375 82.230469 444.871094 71.164063 446.621094 66.871094 C 447.664063 66.867188 448 66.867188 449.320313 66.867188 C 447.875 70.414063 443.054688 82.230469 443.054688 82.230469 L 479.730469 82.175781 L 497.070313 39.777344 C 498.796875 35.621094 497.757813 32.710938 496.578125 31.003906 C 495.363281 29.253906 492.890625 27.167969 487.949219 27.167969 L 469.710938 27.191406 L 465.535156 27.199219 C 465.535156 27.199219 460.953125 38.464844 459.183594 42.808594 C 458.144531 42.808594 457.8125 42.808594 456.488281 42.808594 C 457.988281 39.128906 462.847656 27.199219 462.847656 27.199219 C 462.847656 27.199219 430.339844 27.246094 430.332031 27.246094 C 429.773438 27.246094 429.246094 27.34375 428.734375 27.480469 C 428.609375 27.511719 428.488281 27.550781 428.367188 27.589844 C 427.878906 27.753906 427.40625 27.957031 426.980469 28.230469 C 426.960938 28.242188 426.9375 28.25 426.914063 28.265625 C 426.472656 28.558594 426.085938 28.917969 425.730469 29.3125 C 425.710938 29.335938 425.691406 29.355469 425.671875 29.382813 L 420.566406 28.554688 C 410.078125 26.855469 400.570313 26.035156 391.507813 26.046875 C 383.238281 26.058594 371.382813 26.820313 362.898438 33.035156 L 365.257813 27.332031 L 356.128906 27.347656 L 302.6875 27.421875 L 302.691406 27.414063 L 293.449219 27.429688 L 265.6875 27.464844 L 265.6875 27.46875 C 263.699219 27.46875 229.621094 27.519531 229.621094 27.519531 L 217.605469 55.769531 C 212.039063 55.777344 203.371094 55.789063 198.847656 55.792969 C 202.121094 47.535156 210.046875 27.539063 210.046875 27.539063 L 201.058594 27.554688 C 201.058594 27.554688 177.269531 27.589844 177.257813 27.589844 C 176.695313 27.589844 176.164063 27.683594 175.648438 27.824219 C 175.523438 27.855469 175.40625 27.894531 175.285156 27.933594 C 174.769531 28.105469 174.277344 28.316406 173.835938 28.609375 C 173.832031 28.609375 173.828125 28.609375 173.824219 28.613281 C 173.375 28.910156 172.988281 29.28125 172.632813 29.679688 C 172.546875 29.773438 172.46875 29.867188 172.390625 29.96875 C 172.054688 30.398438 171.769531 30.863281 171.5625 31.371094 C 171.554688 31.390625 171.535156 31.402344 171.527344 31.421875 L 161.585938 56.5 C 156.332031 56.515625 150.386719 56.53125 148.460938 56.535156 C 149.015625 55.328125 149.578125 54.097656 149.578125 54.097656 C 150.050781 53.0625 161.210938 28.75 162.855469 24.785156 C 163.300781 23.722656 164.289063 21.328125 164.289063 18.585938 C 164.289063 16.828125 163.882813 14.929688 162.660156 13.140625 C 159.671875 8.761719 154.351563 8.703125 152.605469 8.683594 C 149.03125 8.644531 75.707031 8.679688 72.589844 8.683594 C 63.203125 8.683594 57.953125 11.636719 53.867188 19.226563 L 53.75 19.441406 L 10.953125 113.304688 L 10.839844 113.636719 C 9.5625 117.339844 10.066406 121.140625 12.222656 124.066406 C 14.316406 126.902344 17.675781 128.523438 21.441406 128.523438 L 145.082031 128.554688 C 145.082031 128.554688 116.304688 192.445313 115.863281 193.484375 C 115.265625 194.890625 114.96875 196.328125 114.96875 197.734375 C 114.96875 199.671875 115.53125 201.542969 116.644531 203.171875 C 117.820313 204.902344 120.667969 207.804688 126.464844 207.824219 L 171.855469 207.789063 L 171.859375 207.78125 C 175.371094 207.777344 230.132813 207.695313 230.132813 207.695313 C 230.132813 207.695313 230.164063 207.625 230.164063 207.621094 C 233.574219 207.648438 237.941406 207.683594 237.941406 207.683594 C 243.46875 207.726563 270.535156 207.933594 275.890625 207.679688 C 283.699219 208.039063 287.992188 204.269531 289.445313 200.601563 L 313.625 144.0625 L 345.824219 144.070313 C 345.824219 144.070313 349.046875 139.640625 350.339844 137.867188 C 352.660156 137.867188 354.480469 137.867188 358.089844 137.867188 C 358.089844 137.9375 357.832031 144.078125 357.832031 144.078125 L 391.339844 144.085938 L 391.378906 143.128906 L 392.285156 143.273438 C 401.226563 144.6875 410.605469 145.320313 422.699219 145.320313 C 435.5625 145.324219 445.929688 144.625 452.632813 135.804688 C 454.882813 132.816406 457.300781 127.015625 457.480469 122.441406 C 457.492188 122.140625 457.5 121.847656 457.5 121.554688 C 457.5 119.304688 457.082031 117.324219 456.355469 115.554688 C 459.695313 115.554688 466.621094 115.554688 468.535156 115.558594 C 465.722656 123.8125 458.820313 144.074219 458.820313 144.074219 L 493.179688 144.082031 C 493.179688 144.082031 500.84375 121.585938 502.894531 115.566406 C 505.070313 115.566406 508.835938 115.566406 511.878906 115.570313 L 502.234375 144.070313 L 565.808594 144.089844 C 565.808594 144.089844 565.808594 144.082031 565.8125 144.078125 L 594.308594 144.085938 C 594.308594 144.085938 596.34375 138.066406 596.621094 137.25 C 597.652344 138.851563 601.039063 144.085938 601.039063 144.085938 L 641.203125 144.101563 C 648.433594 144.945313 656.234375 145.335938 665.710938 145.335938 C 678.578125 145.34375 688.949219 144.644531 695.648438 135.816406 C 697.886719 132.84375 700.296875 127.050781 700.484375 122.472656 C 700.5 122.171875 700.507813 121.875 700.507813 121.582031 C 700.507813 119.164063 700.039063 117.050781 699.21875 115.1875 C 700.632813 115.339844 702.257813 115.511719 702.257813 115.511719 L 711.378906 90.898438 "/>
<path style=" stroke:none;fill-rule:evenodd;fill:rgb(100%,91.371155%,0%);fill-opacity:1;" d="M 99.289063 64.097656 C 96.621094 64.03125 94.394531 59.664063 95.871094 55.664063 C 96.476563 54.039063 99.5625 50.867188 103.953125 50.976563 C 108.34375 51.085938 142.445313 51.03125 142.445313 51.03125 C 142.445313 51.03125 154.003906 25.855469 155.609375 21.976563 C 157.652344 17.050781 155.96875 16.222656 152.402344 16.183594 C 148.835938 16.140625 72.480469 16.183594 72.480469 16.183594 C 65.480469 16.183594 63.148438 17.921875 60.566406 22.714844 L 18.015625 116.027344 C 17.0625 118.789063 18.542969 121.023438 21.320313 121.019531 L 134.558594 121.078125 L 158.972656 64.007813 C 158.972656 64.007813 101.957031 64.164063 99.289063 64.097656 "/>
<path style=" stroke:none;fill-rule:evenodd;fill:rgb(100%,91.371155%,0%);fill-opacity:1;" d="M 321.980469 104.765625 C 322.960938 102.003906 320.941406 95.773438 309.699219 95.292969 L 155.011719 95.308594 L 143.558594 121.070313 L 156.796875 120.953125 C 156.796875 120.953125 123.386719 195.101563 122.855469 196.355469 C 122 198.371094 122.886719 200.3125 126.386719 200.328125 C 129.882813 200.339844 166.734375 200.292969 166.734375 200.292969 L 201.632813 123.652344 C 202.894531 120.09375 206.820313 117.203125 210.402344 117.199219 C 213.984375 117.191406 215.863281 120.074219 214.601563 123.632813 L 179.703125 200.273438 L 224.921875 200.203125 L 258.03125 124.085938 C 259.292969 120.523438 263.214844 117.632813 266.796875 117.628906 C 270.378906 117.625 272.257813 120.503906 271 124.0625 L 237.890625 200.1875 C 237.890625 200.1875 271.710938 200.457031 275.6875 200.171875 C 281.328125 200.601563 282.195313 197.800781 282.195313 197.800781 L 321.980469 104.765625 "/>
<path style=" stroke:none;fill-rule:evenodd;fill:rgb(100%,91.371155%,0%);fill-opacity:1;" d="M 350.269531 95.464844 L 387.074219 95.476563 L 385.3125 138.085938 L 364.128906 138.078125 L 364.386719 131.871094 L 347.050781 131.867188 L 342.53125 138.070313 L 319.003906 138.066406 Z M 365.441406 106.269531 L 365.300781 106.269531 L 353.808594 121.605469 L 364.804688 121.609375 L 365.441406 106.269531 "/>
<path style=" stroke:none;fill-rule:evenodd;fill:rgb(100%,91.371155%,0%);fill-opacity:1;" d="M 396.695313 126.613281 C 404.496094 127.445313 412.253906 127.988281 420.160156 127.988281 C 422.425781 127.988281 427.238281 127.992188 427.363281 125.183594 C 427.445313 123.105469 426.230469 122.675781 413.921875 122.671875 C 407.582031 122.671875 400.71875 120.820313 400.996094 114.140625 C 401.378906 104.960938 407.179688 97.496094 415.523438 95.46875 C 420.175781 94.335938 426.851563 94.226563 431.953125 94.230469 C 438.816406 94.230469 449.886719 94.53125 459.863281 95.84375 L 454.980469 109.015625 C 448.347656 108.300781 441.773438 107.710938 435.03125 107.710938 C 426.839844 107.707031 424.882813 108.714844 424.796875 110.746094 C 424.722656 112.472656 426.074219 112.949219 436.867188 112.953125 C 444.71875 112.953125 451.582031 113.257813 451.214844 122.214844 C 451.085938 125.550781 449.097656 130.210938 447.570313 132.234375 C 443.039063 138.199219 436.132813 139.324219 422.585938 139.320313 C 411.578125 139.320313 402.246094 138.789063 393.15625 137.351563 L 396.695313 126.613281 "/>
<path style=" stroke:none;fill-rule:evenodd;fill:rgb(100%,91.371155%,0%);fill-opacity:1;" d="M 476.949219 109.558594 L 463.046875 109.554688 L 468.035156 95.46875 L 517.144531 95.480469 L 512.167969 109.566406 L 498.339844 109.566406 L 488.628906 138.082031 L 467.234375 138.078125 L 476.949219 109.558594 "/>
<path style=" stroke:none;fill-rule:evenodd;fill:rgb(100%,91.371155%,0%);fill-opacity:1;" d="M 525.046875 95.46875 L 575.742188 95.480469 L 571.117188 108.976563 L 541.824219 108.964844 L 540.246094 113.734375 L 569.546875 113.742188 L 566.425781 122.929688 L 537.109375 122.921875 L 535.785156 126.742188 L 565.089844 126.75 L 561.246094 138.085938 L 510.632813 138.074219 L 525.046875 95.46875 "/>
<path style=" stroke:none;fill-rule:evenodd;fill:rgb(100%,91.371155%,0%);fill-opacity:1;" d="M 583.9375 95.476563 L 624.519531 95.484375 C 633.871094 95.488281 635.71875 98.953125 635.476563 104.984375 C 635.046875 115.71875 627.949219 120.613281 619.078125 120.609375 L 615.359375 120.609375 L 628.875 138.09375 L 604.320313 138.089844 L 594.75 123.289063 L 589.742188 138.085938 L 568.769531 138.078125 Z M 597.519531 116.25 L 606.949219 116.253906 C 611.765625 116.253906 613.960938 113.148438 614.0625 110.402344 C 614.15625 108.367188 612.539063 107.421875 609.648438 107.421875 L 600.492188 107.417969 L 597.519531 116.25 "/>
<path style=" stroke:none;fill-rule:evenodd;fill:rgb(100%,91.371155%,0%);fill-opacity:1;" d="M 639.695313 126.628906 C 647.507813 127.464844 655.25 128.003906 663.171875 128.003906 C 665.4375 128.003906 670.25 128.007813 670.378906 125.199219 C 670.460938 123.117188 669.238281 122.691406 656.929688 122.6875 C 650.601563 122.6875 643.714844 120.835938 644 114.15625 C 644.371094 104.976563 650.191406 97.511719 658.535156 95.480469 C 663.183594 94.351563 669.863281 94.242188 674.953125 94.242188 C 681.832031 94.246094 692.894531 94.546875 702.886719 95.855469 L 698 109.03125 C 691.363281 108.320313 684.78125 107.726563 678.042969 107.722656 C 669.851563 107.722656 667.882813 108.730469 667.800781 110.761719 C 667.734375 112.488281 669.078125 112.964844 679.882813 112.96875 C 687.734375 112.972656 694.589844 113.273438 694.222656 122.230469 C 694.085938 125.566406 692.109375 130.226563 690.589844 132.25 C 686.066406 138.210938 679.128906 139.34375 665.597656 139.335938 C 654.589844 139.335938 645.25 138.804688 636.171875 137.367188 L 639.695313 126.628906 "/>
<path style=" stroke:none;fill-rule:evenodd;fill:rgb(100%,91.371155%,0%);fill-opacity:1;" d="M 177.15625 33.585938 L 200.953125 33.554688 L 189.753906 61.808594 L 213.640625 61.773438 L 207.730469 76.542969 L 160.09375 76.609375 L 177.15625 33.585938 "/>
<path style=" stroke:none;fill-rule:evenodd;fill:rgb(100%,91.371155%,0%);fill-opacity:1;" d="M 279.824219 65.125 C 275.179688 75.964844 263.816406 77.726563 244.082031 77.753906 C 235.058594 77.765625 219.308594 77.195313 219.953125 67.617188 C 220.046875 66.046875 220.367188 64.785156 222.371094 59.960938 L 233.621094 33.511719 L 257.734375 33.476563 L 246.964844 58.847656 C 246.234375 60.476563 245.390625 62.769531 245.328125 63.726563 C 245.171875 65.960938 247.128906 66.855469 250.039063 66.851563 C 254.359375 66.847656 256.261719 64.917969 257.539063 61.964844 L 269.6875 33.460938 L 293.347656 33.425781 L 279.824219 65.125 "/>
<path style=" stroke:none;fill-rule:evenodd;fill:rgb(100%,91.371155%,0%);fill-opacity:1;" d="M 310.683594 47.628906 L 295.128906 47.648438 L 301 33.421875 L 356.027344 33.34375 L 350.148438 47.570313 L 334.65625 47.59375 L 323.183594 76.390625 L 299.214844 76.425781 L 310.683594 47.628906 "/>
<path style=" stroke:none;fill-rule:evenodd;fill:rgb(100%,91.371155%,0%);fill-opacity:1;" d="M 402.765625 75.378906 C 392.242188 77.199219 381.273438 77.570313 376.109375 77.578125 C 359.539063 77.601563 352.160156 75.085938 352.820313 65.15625 C 353.230469 58.890625 358.539063 44.128906 366.027344 38.15625 C 372.691406 32.96875 382.695313 32.058594 391.402344 32.050781 C 400.878906 32.035156 410.214844 32.976563 419.445313 34.472656 L 413.644531 48.6875 C 408.898438 48.15625 404.832031 47.859375 400.359375 47.867188 C 393.496094 47.875 387.230469 48.304688 382.945313 51.316406 C 380.84375 52.820313 378.636719 55.785156 378.40625 59.460938 C 378.117188 63.734375 381.722656 64.992188 390.050781 64.980469 C 395.984375 64.972656 401.84375 63.875 407.753906 63.085938 L 402.765625 75.378906 "/>
<path style=" stroke:none;fill-rule:evenodd;fill:rgb(100%,91.371155%,0%);fill-opacity:1;" d="M 430.226563 33.246094 L 453.660156 33.214844 L 447.304688 48.820313 L 463.253906 48.800781 L 469.605469 33.195313 C 469.605469 33.195313 485.019531 33.167969 487.84375 33.167969 C 490.660156 33.167969 492.652344 34.160156 491.253906 37.527344 C 489.855469 40.894531 475.441406 76.183594 475.441406 76.183594 L 452.015625 76.21875 L 458.28125 60.855469 L 442.328125 60.875 L 436.066406 76.238281 L 412.648438 76.269531 L 430.226563 33.246094 "/>
</g>
</svg>
